<svg width="32" height="32" viewBox="0 0 32 32" fill="none" xmlns="http://www.w3.org/2000/svg">
<path d="M28.4305 22.195V25.945C28.4319 26.2932 28.3606 26.6378 28.2211 26.9567C28.0816 27.2757 27.8771 27.562 27.6206 27.7974C27.364 28.0327 27.0612 28.2119 26.7314 28.3234C26.4016 28.435 26.0522 28.4764 25.7055 28.445C21.859 28.0271 18.1642 26.7127 14.918 24.6075C11.8977 22.6884 9.33713 20.1278 7.41796 17.1075C5.30543 13.8465 3.99076 10.1338 3.58046 6.27004C3.54922 5.92438 3.5903 5.57599 3.70108 5.24707C3.81187 4.91815 3.98992 4.6159 4.22392 4.35957C4.45791 4.10323 4.74271 3.89843 5.0602 3.7582C5.37768 3.61796 5.72088 3.54537 6.06796 3.54504H9.81796C10.4246 3.53907 11.0127 3.75389 11.4727 4.14946C11.9326 4.54503 12.2331 5.09435 12.318 5.69504C12.4762 6.89513 12.7698 8.07345 13.193 9.20754C13.3611 9.65495 13.3975 10.1412 13.2978 10.6086C13.1981 11.0761 12.9665 11.5052 12.6305 11.845L11.043 13.4325C12.8224 16.562 15.4135 19.1531 18.543 20.9325L20.1305 19.345C20.4703 19.009 20.8994 18.7774 21.3669 18.6777C21.8343 18.578 22.3206 18.6144 22.768 18.7825C23.902 19.2057 25.0804 19.4993 26.2805 19.6575C26.8877 19.7432 27.4422 20.0491 27.8386 20.5169C28.235 20.9848 28.4457 21.582 28.4305 22.195Z" stroke="#FF4242" stroke-width="2" stroke-linecap="round" stroke-linejoin="round"/>
</svg>
