<svg width="82" height="100" viewBox="0 0 82 100" fill="none" xmlns="http://www.w3.org/2000/svg">
<g clip-path="url(#clip0_1549_9910)">
<path d="M32.165 18.6465C27.0233 18.6465 22.8418 14.465 22.8418 9.32325C22.8418 4.18147 27.0233 0 32.165 0C37.3068 0 41.4883 4.18147 41.4883 9.32325C41.4883 14.465 37.3068 18.6465 32.165 18.6465ZM32.165 2.26843C28.2785 2.26843 25.1102 5.43667 25.1102 9.32325C25.1102 13.2098 28.2709 16.3781 32.165 16.3781C36.0592 16.3781 39.2199 13.2174 39.2199 9.32325C39.2199 5.42911 36.0516 2.26843 32.165 2.26843Z" fill="#3D3935"/>
<path d="M40.5202 100.001C37.0268 100.001 34.1761 97.1578 34.1761 93.6568V58.8213H30.1535V93.6568C30.1535 97.1502 27.3104 100.001 23.8094 100.001C20.3085 100.001 17.4654 97.1578 17.4654 93.6568V50.5113C17.4654 50.3903 17.4654 50.2769 17.4805 50.1635V50.1181C17.4729 50.0198 17.4654 49.9215 17.4654 49.8232V43.4262L10.8189 54.2542C9.1251 56.999 5.51074 57.8534 2.76594 56.1597C0.0211334 54.4659 -0.833309 50.8515 0.860453 48.1067L15.3709 24.4621C15.3709 24.4621 15.4011 24.4092 15.4238 24.3865C16.8 22.5037 18.4559 20.8024 23.4843 20.6965C30.8037 20.5378 36.7017 20.5453 41.0268 20.7117L41.3595 20.7268C44.9209 20.8327 47.4767 22.0879 48.9436 24.4697L52.3312 29.9896C52.6563 30.5264 52.4899 31.2221 51.9606 31.5472C51.4313 31.8723 50.7281 31.706 50.403 31.1767L47.0155 25.6568C45.9569 23.948 44.0892 23.0784 41.299 22.9952L40.9436 22.9801C36.6639 22.8137 30.8113 22.8137 23.5372 22.9725C19.2499 23.0633 18.2366 24.3941 17.2839 25.6947L2.79618 49.3015C1.76026 50.9877 2.282 53.1956 3.96064 54.2391C5.63928 55.275 7.85478 54.7533 8.8907 53.0746L17.6317 38.8289C17.8964 38.3979 18.4181 38.1937 18.9096 38.3298C19.4011 38.4659 19.7338 38.912 19.7338 39.4187V49.8308C19.7338 49.8761 19.7338 49.9215 19.7338 49.9669V50.1257C19.7414 50.1635 19.7414 50.2088 19.7414 50.2542C19.7414 50.2542 19.7414 50.3298 19.7414 50.3374C19.7414 50.3979 19.7338 50.4659 19.7338 50.5264V93.672C19.7338 95.9177 21.5637 97.7476 23.8094 97.7476C26.0552 97.7476 27.885 95.9177 27.885 93.672V57.7022C27.885 57.0746 28.3916 56.568 29.0192 56.568H35.3104C35.938 56.568 36.4446 57.0746 36.4446 57.7022V93.672C36.4446 95.9177 38.2744 97.7476 40.5202 97.7476C42.7659 97.7476 44.5958 95.9177 44.5958 93.672V50.5264C44.5958 50.4659 44.5958 50.3979 44.5882 50.3374C44.5882 50.3374 44.5882 50.2618 44.5882 50.2542C44.5882 50.2088 44.5882 50.171 44.5882 50.1257V49.9669C44.6034 49.9215 44.6034 49.8761 44.6034 49.8308V39.4187C44.6034 38.912 44.9436 38.4659 45.4276 38.3298C45.9115 38.1937 46.4332 38.3903 46.7054 38.8289L55.4465 53.0822C56.4824 54.7608 58.6979 55.2826 60.3765 54.2466C62.0552 53.2107 62.5769 50.9952 61.541 49.3166L52.4295 34.4584C52.1043 33.9215 52.2707 33.2258 52.8 32.9007C53.3293 32.5756 54.0325 32.7419 54.3576 33.2712L63.4692 48.1219C65.1629 50.8667 64.3085 54.4735 61.5637 56.1748C58.8189 57.8686 55.2045 57.0141 53.5107 54.2693L46.8642 43.4413V49.8383C46.8642 49.9366 46.8642 50.0349 46.8491 50.1332V50.1786C46.8491 50.3223 46.8642 50.4281 46.8642 50.5264V93.672C46.8642 97.1653 44.0211 100.016 40.5202 100.016V100.001Z" fill="#3D3935"/>
<path d="M36.6549 9.32352C36.6549 6.84337 34.6435 4.83203 32.1634 4.83203C29.6832 4.83203 27.6719 6.84337 27.6719 9.32352C27.6719 11.8037 29.6832 13.815 32.1634 13.815C34.6435 13.815 36.6549 11.8037 36.6549 9.32352Z" fill="#7BA9BE"/>
<path d="M32.1655 51.5239C31.5379 51.5239 31.0312 51.0173 31.0312 50.3897V27.5541C31.0312 26.9265 31.5379 26.4199 32.1655 26.4199C32.7931 26.4199 33.2997 26.9265 33.2997 27.5541V50.3897C33.2997 51.0173 32.7931 51.5239 32.1655 51.5239Z" fill="#7BA9BE"/>
<path d="M57.6094 51.6131C57.2314 51.6131 56.8684 51.4241 56.6491 51.0838C56.5357 50.9023 45.2238 33.0422 42.1463 29.9647C38.5849 26.4033 24.5206 26.4033 20.9592 29.9647C19.2578 31.666 10.7966 44.46 7.68128 49.2464C7.34101 49.7681 6.6378 49.9193 6.1085 49.5791C5.58676 49.2388 5.43553 48.5356 5.77579 48.0063C6.93269 46.2218 17.1784 30.5318 19.3561 28.3541C23.8023 23.908 39.3108 23.908 43.7569 28.3541C47.0159 31.6055 58.1009 49.1178 58.5773 49.8664C58.91 50.3957 58.7512 51.0989 58.2219 51.4316C58.0329 51.5526 57.8212 51.6055 57.617 51.6055L57.6094 51.6131Z" fill="#7BA9BE"/>
<path d="M40.7918 92.2333C40.1642 92.2333 39.6575 91.7267 39.6575 91.0991V58.0254C39.6575 54.5774 36.8523 51.7645 33.3967 51.7645H30.9316C27.4836 51.7645 24.6708 54.5698 24.6708 58.0254V91.0991C24.6708 91.7267 24.1642 92.2333 23.5366 92.2333C22.909 92.2333 22.4023 91.7267 22.4023 91.0991V58.0254C22.4023 53.3222 26.2284 49.4961 30.9316 49.4961H33.3967C38.0999 49.4961 41.926 53.3222 41.926 58.0254V91.0991C41.926 91.7267 41.4194 92.2333 40.7918 92.2333Z" fill="#7BA9BE"/>
<path d="M72.9232 88.4231H65.9061C65.2785 88.4231 64.7719 87.9164 64.7719 87.2888V80.9145H58.3901C57.7625 80.9145 57.2559 80.4079 57.2559 79.7803V72.7558C57.2559 72.1282 57.7625 71.6215 58.3901 71.6215H64.7719V65.2397C64.7719 64.6121 65.2785 64.1055 65.9061 64.1055H72.9232C73.5508 64.1055 74.0574 64.6121 74.0574 65.2397V71.6215H80.4392C81.0668 71.6215 81.5734 72.1282 81.5734 72.7558V79.7803C81.5734 80.4079 81.0668 80.9145 80.4392 80.9145H74.0574V87.2888C74.0574 87.9164 73.5508 88.4231 72.9232 88.4231ZM67.0404 86.1546H71.7889V79.7803C71.7889 79.1527 72.2956 78.6461 72.9232 78.6461H79.305V73.89H72.9232C72.2956 73.89 71.7889 73.3834 71.7889 72.7558V66.3739H67.0404V72.7558C67.0404 73.3834 66.5337 73.89 65.9061 73.89H59.5243V78.6461H65.9061C66.5337 78.6461 67.0404 79.1527 67.0404 79.7803V86.1546Z" fill="#3D3935"/>
</g>
<defs>
<clipPath id="clip0_1549_9910">
<rect width="81.5728" height="100" fill="white"/>
</clipPath>
</defs>
</svg>
