<svg width="58" height="70" viewBox="0 0 58 70" fill="none" xmlns="http://www.w3.org/2000/svg">
<g clip-path="url(#clip0_1545_5193)">
<path d="M15.5213 2.76953C18.7728 2.76953 21.3941 5.39088 21.3941 8.64237C21.3941 11.8939 18.4955 16.4308 15.5213 16.4308C12.547 16.4308 9.64844 11.8939 9.64844 8.64237C9.64844 5.39088 12.2698 2.76953 15.5213 2.76953Z" stroke="#3D3935" stroke-width="3" stroke-linecap="round" stroke-linejoin="round"/>
<path d="M2.21289 47.028V32.2577C2.21289 25.6539 7.60683 20.2852 14.1854 20.2852H16.8572C23.4358 20.2852 28.8297 25.6791 28.8297 32.2577V47.028" stroke="#3D3935" stroke-width="3" stroke-linecap="round" stroke-linejoin="round"/>
<path d="M8.38672 68.7312V34.0234M22.6529 68.7312V34.0234" stroke="#3D3935" stroke-width="3" stroke-linecap="round" stroke-linejoin="round"/>
<path d="M15.5195 68.732V49.5508" stroke="#3D3935" stroke-width="3" stroke-linecap="round" stroke-linejoin="round"/>
<path d="M42.3466 9.75649L45.1444 13.6129L54.8988 3.73242M50.8912 13.4869V17.5953H38.2129V4.89187H48.5975M42.3466 34.0292L45.1444 37.8856L54.8988 28.0051M50.8912 37.7344V41.8429H38.2129V29.1646H48.5975M42.3466 58.2767L45.1444 62.1331L54.8988 52.2527M50.8912 61.9819V66.0904H38.2129V53.4121H48.5975" stroke="#DA4E37" stroke-width="3" stroke-linecap="round" stroke-linejoin="round"/>
</g>
<defs>
<clipPath id="clip0_1545_5193">
<rect width="56.7372" height="68.4324" fill="white" transform="translate(0.296875 0.783203)"/>
</clipPath>
</defs>
</svg>
