<svg width="70" height="70" viewBox="0 0 70 70" fill="none" xmlns="http://www.w3.org/2000/svg">
<g clip-path="url(#clip0_1545_5173)">
<path d="M11.9303 2.04688H58.0692C63.5003 2.04688 67.9487 6.47683 67.9487 11.8855V58.1424C67.9487 63.5511 63.5003 67.981 58.0692 67.981H11.9303C6.49915 67.981 2.05078 63.5511 2.05078 58.1424V11.8855C2.05078 6.47683 6.49915 2.04688 11.9303 2.04688Z" stroke="#3D3935" stroke-width="3" stroke-linecap="round" stroke-linejoin="round"/>
<path d="M34.2232 8.09997C39.9647 8.09997 45.3442 9.69682 49.896 12.5042L41.4906 23.167C39.2923 22.0852 36.8354 21.4928 34.2232 21.4928C31.7663 21.4928 29.4387 22.0337 27.3179 22.9867L18.8867 12.2724C23.3609 9.61955 28.6111 8.07422 34.2232 8.07422V8.09997Z" stroke="#DA4E37" stroke-width="3" stroke-linecap="round" stroke-linejoin="round"/>
<path d="M29.5977 14.5371L33.296 21.5426" stroke="#DA4E37" stroke-width="3" stroke-linecap="round" stroke-linejoin="round"/>
</g>
<defs>
<clipPath id="clip0_1545_5173">
<rect width="68.4324" height="68.4324" fill="white" transform="translate(0.783203 0.783203)"/>
</clipPath>
</defs>
</svg>
