<svg width="70" height="70" viewBox="0 0 70 70" fill="none" xmlns="http://www.w3.org/2000/svg">
<g clip-path="url(#clip0_1545_5204)">
<path d="M1.95703 26.2236C5.85993 19.3411 14.7672 11.0082 18.6461 10.492C22.5011 9.97584 25.2547 10.2708 28.152 9.58255C30.0675 9.50881 30.1633 4.34688 30.5224 2.01172" stroke="#3D3935" stroke-width="3" stroke-linecap="round" stroke-linejoin="round"/>
<path d="M68.0673 26.2236C64.1644 19.3411 55.2572 11.0082 51.3783 10.492C47.5232 9.97584 44.7936 10.2708 41.8724 9.58255C39.9569 9.50881 39.8611 4.34688 39.502 2.01172" stroke="#3D3935" stroke-width="3" stroke-linecap="round" stroke-linejoin="round"/>
<path d="M16.7555 68.011C17.8091 62.6524 22.3345 56.8022 24.4416 49.1577C26.3092 42.4226 21.3528 24.9949 17.9527 23.1514C16.564 21.7994 8.11166 30.1077 4.49609 38.1455" stroke="#3D3935" stroke-width="3" stroke-linecap="round" stroke-linejoin="round"/>
<path d="M6.79297 46.4301H17.3763L14.2157 42.7676" stroke="#DA4E37" stroke-width="3" stroke-linecap="round" stroke-linejoin="round"/>
<path d="M14.2168 50.0922L17.3774 46.4297" stroke="#DA4E37" stroke-width="3" stroke-linecap="round" stroke-linejoin="round"/>
<path d="M62.4407 46.4301H51.8574L55.0181 42.7676" stroke="#DA4E37" stroke-width="3" stroke-linecap="round" stroke-linejoin="round"/>
<path d="M55.0181 50.0922L51.8574 46.4297" stroke="#DA4E37" stroke-width="3" stroke-linecap="round" stroke-linejoin="round"/>
<path d="M53.2426 68.011C52.1891 62.6524 47.6636 56.8022 45.5565 49.1577C43.6889 42.4226 48.6453 24.9949 52.0454 23.1514C53.4342 21.7994 61.8865 30.1077 65.502 38.1455" stroke="#3D3935" stroke-width="3" stroke-linecap="round" stroke-linejoin="round"/>
</g>
<defs>
<clipPath id="clip0_1545_5204">
<rect width="68.4324" height="68.4324" fill="white" transform="translate(0.783203 0.783203)"/>
</clipPath>
</defs>
</svg>
