<svg width="69" height="70" viewBox="0 0 69 70" fill="none" xmlns="http://www.w3.org/2000/svg">
<g clip-path="url(#clip0_1545_5182)">
<path d="M20.2875 7.48572H21.6328C21.6328 4.88232 23.8579 2.75 26.5745 2.75C29.2911 2.75 31.5161 4.88232 31.5161 7.48572H32.8615C35.2676 7.48572 37.208 9.3453 37.208 11.6512C37.208 13.9571 35.2676 15.8166 32.8615 15.8166H20.3134C17.9072 15.8166 15.9668 13.9571 15.9668 11.6512C15.9668 9.3453 17.9072 7.48572 20.3134 7.48572H20.2875Z" stroke="#3D3935" stroke-width="3" stroke-linecap="round" stroke-linejoin="round"/>
<path d="M37.1575 10.4297H51.5167V20.7689M51.5167 63.1673V68.0022H1.63477V10.4297H15.9939" stroke="#3D3935" stroke-width="3" stroke-linecap="round" stroke-linejoin="round"/>
<path d="M34.2862 21.239C31.5178 22.7763 31.3367 27.4624 33.8722 31.7022C35.7091 34.7519 38.4516 36.7355 40.8836 37.033L55.9155 63.0423L58.5803 61.5794L61.2452 60.1166L45.256 34.628C46.1875 32.4461 45.7735 29.1732 43.9366 26.1483C41.3752 21.9085 37.0545 19.7266 34.2862 21.2638V21.239Z" stroke="#DA4E37" stroke-width="3" stroke-linecap="round" stroke-linejoin="round"/>
<path d="M67.7915 25.4116L63.3155 32.8499C61.5304 35.8005 58.8655 37.7344 56.5111 38.032L52.0093 45.8174M48.8529 51.2473L41.8932 63.2974L39.306 61.8593L36.7188 60.4213L45.8 45.9662M48.9564 40.9577L52.268 35.7013C51.3625 33.5938 51.7765 30.4201 53.5617 27.4696L58.0635 20.0312M63.1603 22.8578L57.5978 32.0565" stroke="#DA4E37" stroke-width="3" stroke-linecap="round" stroke-linejoin="round"/>
</g>
<defs>
<clipPath id="clip0_1545_5182">
<rect width="68.4324" height="68.4324" fill="white" transform="translate(0.367188 0.783203)"/>
</clipPath>
</defs>
</svg>
