<svg width="85" height="100" viewBox="0 0 85 100" fill="none" xmlns="http://www.w3.org/2000/svg">
<g clip-path="url(#clip0_1549_9861)">
<path d="M33.4864 99.9998C29.6108 99.9998 26.411 97.0524 26.0039 93.2908C24.6849 94.39 22.9914 95.0332 21.1757 95.0332C17.0233 95.0332 13.6525 91.6543 13.6525 87.51V83.8136H11.1366C6.98421 83.8136 3.61342 80.4346 3.61342 76.2903C3.61342 74.3688 4.32992 72.5939 5.54308 71.2423C2.35141 70.3711 -0.00976562 67.4481 -0.00976562 63.9796C-0.00976562 60.5112 2.4654 57.4416 5.77919 56.6519C4.43576 55.2921 3.60528 53.4276 3.60528 51.3677C3.60528 47.2153 6.98421 43.8445 11.1285 43.8445H13.6444V40.148C13.6444 35.9956 17.0233 32.6248 21.1676 32.6248C22.9832 32.6248 24.6768 33.268 25.9958 34.3672C26.4029 30.5975 29.6027 27.6582 33.4783 27.6582C37.6307 27.6582 41.0015 31.0371 41.0015 35.1814C41.0015 35.8572 40.456 36.4027 39.7802 36.4027C39.1044 36.4027 38.5589 35.8572 38.5589 35.1814C38.5589 32.3806 36.2791 30.1008 33.4783 30.1008C30.6774 30.1008 28.3977 32.3806 28.3977 35.1814V38.2347C28.3977 38.8372 27.958 39.3501 27.3636 39.4397C26.7693 39.5292 26.1993 39.1791 26.0121 38.601C25.3363 36.4841 23.3903 35.0593 21.1676 35.0593C18.3667 35.0593 16.087 37.339 16.087 40.1399V45.0576C16.087 45.7334 15.5414 46.2789 14.8657 46.2789H11.1285C8.32764 46.2789 6.04788 48.5587 6.04788 51.3596C6.04788 54.1604 8.32764 56.4402 11.1285 56.4402C11.8043 56.4402 12.3498 56.9857 12.3498 57.6615C12.3498 58.3372 11.8043 58.8828 11.1285 58.8828H7.5053C4.70445 58.8828 2.42469 61.1625 2.42469 63.9634C2.42469 66.7642 4.70445 69.044 7.5053 69.044H9.20697C9.80948 69.044 10.3224 69.4836 10.412 70.078C10.5016 70.6724 10.1514 71.2505 9.57337 71.4296C7.45645 72.1054 6.03974 74.0432 6.03974 76.2659C6.03974 79.0668 8.3195 81.3465 11.1203 81.3465H14.8575C15.5333 81.3465 16.0788 81.892 16.0788 82.5678V87.4856C16.0788 90.2864 18.3586 92.5662 21.1594 92.5662C23.3822 92.5662 25.3281 91.1413 26.0039 89.0326C26.183 88.4545 26.7611 88.1044 27.3555 88.1939C27.9498 88.2835 28.3895 88.7965 28.3895 89.399V92.4522C28.3895 95.2531 30.6693 97.5328 33.4701 97.5328C36.271 97.5328 38.5507 95.2531 38.5507 92.4522V41.524C38.5507 40.8482 39.0962 40.3027 39.772 40.3027C40.4478 40.3027 40.9933 40.8482 40.9933 41.524V92.4522C40.9933 96.6046 37.6144 99.9754 33.4701 99.9754L33.4864 99.9998Z" fill="#3D3935"/>
<path d="M8.62046 71.6087C8.5716 71.6087 8.53904 71.6087 8.53089 71.6087C7.85511 71.5924 7.32588 71.0306 7.34216 70.3548C7.35845 69.679 7.92839 69.1579 8.59603 69.1661C8.66117 69.1905 11.6004 69.1905 13.351 67.3341C14.4013 66.2187 14.8572 64.5903 14.6862 62.4978C14.6293 61.822 15.1341 61.2358 15.8098 61.1869C16.4775 61.1381 17.0718 61.6347 17.1207 62.3105C17.3405 65.1358 16.6647 67.3911 15.1096 69.0358C12.7647 71.5028 9.24739 71.6168 8.62046 71.6168V71.6087Z" fill="#3D3935"/>
<path d="M18.0648 76.7952C17.9915 76.7952 17.9101 76.7952 17.8287 76.7707C17.1692 76.6405 16.7295 76.0054 16.8598 75.3378C17.6984 70.9574 14.5719 69.7279 14.2055 69.5976C13.5704 69.3778 13.2366 68.6857 13.4483 68.0507C13.6681 67.4156 14.3439 67.0736 14.9871 67.2853C16.9086 67.9285 20.2713 70.5258 19.2535 75.8018C19.1395 76.3881 18.6266 76.7952 18.0567 76.7952H18.0648Z" fill="#3D3935"/>
<path d="M26.7037 92.2319C26.5327 92.2319 26.3617 92.1993 26.1989 92.1261C25.5801 91.8492 25.3114 91.1246 25.5882 90.5139C25.6452 90.3755 31.6051 76.8272 23.9028 69.3203C23.4224 68.8481 23.4061 68.0746 23.8784 67.5942C24.3506 67.1138 25.1241 67.0976 25.6045 67.5698C34.5363 76.2736 28.0878 90.8966 27.811 91.5154C27.6074 91.9632 27.1596 92.2319 26.6955 92.2319H26.7037Z" fill="#3D3935"/>
<path d="M22.5844 53.0115C22.5844 53.0115 22.5111 53.0115 22.4785 53.0115C16.1278 52.9382 14.0434 47.1736 13.8236 44.1285C13.7747 43.4528 14.2795 42.8747 14.9553 42.8258C15.6311 42.7607 16.2092 43.2818 16.258 43.9576C16.2825 44.2344 16.828 50.5037 22.5029 50.5689C24.0581 50.5933 25.4585 50.0885 26.9566 48.9975C27.5021 48.5985 28.2675 48.7206 28.6664 49.2661C29.0654 49.8116 28.9433 50.577 28.3978 50.976C26.517 52.352 24.6117 53.0196 22.5844 53.0196V53.0115Z" fill="#3D3935"/>
<path d="M27.8911 73.765C27.427 73.765 26.9792 73.4963 26.7756 73.0485C26.4988 72.4379 26.7756 71.7132 27.3782 71.4364C27.6306 71.3143 33.3055 68.603 31.5631 62.179C31.384 61.5276 31.7748 60.8599 32.4181 60.6808C33.0694 60.5017 33.7371 60.8844 33.9162 61.5357C35.7563 68.3099 31.099 72.4297 28.3796 73.6592C28.2168 73.7324 28.0458 73.765 27.8748 73.765H27.8911Z" fill="#3D3935"/>
<path d="M22.3311 61.5127C22.2171 61.5127 22.095 61.4964 21.981 61.4638C21.3378 61.2684 20.9714 60.5845 21.1668 59.9413C22.9336 54.0953 19.7827 52.6868 19.7582 52.6786C19.1395 52.4181 18.8463 51.7016 19.1069 51.0747C19.3674 50.4559 20.0839 50.1627 20.7109 50.4233C20.7597 50.4477 25.9055 52.7275 23.5117 60.6496C23.3489 61.1789 22.8685 61.5208 22.3393 61.5208L22.3311 61.5127Z" fill="#3D3935"/>
<path d="M50.8106 100.001C46.6582 100.001 43.2874 96.6219 43.2874 92.4776V80.9648C43.2874 80.289 43.833 79.7435 44.5087 79.7435C45.1845 79.7435 45.73 80.289 45.73 80.9648V92.4776C45.73 95.2785 48.0098 97.5582 50.8106 97.5582C53.6115 97.5582 55.8913 95.2785 55.8913 92.4776V89.4244C55.8913 88.8218 56.3309 88.3089 56.9253 88.2193C57.5196 88.1298 58.0977 88.4799 58.2769 89.058C58.9526 91.1749 60.8986 92.5916 63.1213 92.5916C65.9222 92.5916 68.2019 90.3118 68.2019 87.511V82.5932C68.2019 81.9174 68.7475 81.3719 69.4232 81.3719H73.1604C75.9613 81.3719 78.241 79.0922 78.241 76.2913C78.241 74.0685 76.8162 72.1226 74.7074 71.455C74.1375 71.2758 73.7792 70.6978 73.8688 70.1034C73.9583 69.509 74.4713 69.0694 75.0738 69.0694H76.7755C79.5763 69.0694 81.8561 66.7896 81.8561 63.9888C81.8561 61.1879 79.5763 58.9081 76.7755 58.9081H73.1523C72.4765 58.9081 71.931 58.3626 71.931 57.6868C71.931 57.0111 72.4765 56.4655 73.1523 56.4655C75.9531 56.4655 78.2329 54.1858 78.2329 51.3849C78.2329 48.5841 75.9531 46.3043 73.1523 46.3043H69.4151C68.7393 46.3043 68.1938 45.7588 68.1938 45.083V40.1653C68.1938 37.3644 65.914 35.0847 63.1132 35.0847C60.8904 35.0847 58.9445 36.5095 58.2687 38.6264C58.0896 39.2045 57.5115 39.5546 56.9171 39.4651C56.3228 39.3755 55.8831 38.8626 55.8831 38.26V35.2068C55.8831 32.406 53.6034 30.1262 50.8025 30.1262C48.0017 30.1262 45.7219 32.406 45.7219 35.2068V75.2329C45.7219 75.9086 45.1764 76.4542 44.5006 76.4542C43.8248 76.4542 43.2793 75.9086 43.2793 75.2329V35.2068C43.2793 31.0544 46.6582 27.6836 50.8025 27.6836C54.6781 27.6836 57.8779 30.631 58.285 34.3926C59.604 33.2934 61.2975 32.6502 63.1132 32.6502C67.2656 32.6502 70.6364 36.0291 70.6364 40.1734V43.8699H73.1523C77.3047 43.8699 80.6755 47.2488 80.6755 51.3931C80.6755 53.453 79.845 55.3175 78.5016 56.6772C81.8154 57.4589 84.2905 60.447 84.2905 64.005C84.2905 67.5631 81.9375 70.3965 78.7377 71.2677C79.959 72.6193 80.6673 74.3942 80.6673 76.3157C80.6673 80.4682 77.2884 83.8389 73.1441 83.8389H70.6283V87.5354C70.6283 91.6797 67.2493 95.0586 63.1051 95.0586C61.2894 95.0586 59.5959 94.4154 58.2769 93.3162C57.8698 97.086 54.67 100.025 50.7944 100.025L50.8106 100.001Z" fill="#7BA9BE"/>
<path d="M75.6759 71.609C75.0489 71.609 71.5316 71.495 69.1867 69.028C67.6316 67.3833 66.9477 65.128 67.1756 62.3027C67.2245 61.6269 67.8107 61.1302 68.4865 61.1791C69.1623 61.2279 69.6589 61.8223 69.6101 62.49C69.4473 64.5906 69.8951 66.2271 70.9617 67.3426C72.7203 69.1908 75.6759 69.1664 75.7003 69.1664C75.7085 69.1664 75.7247 69.1664 75.7329 69.1664C76.3924 69.1664 76.9379 69.6875 76.9542 70.3551C76.9705 71.0309 76.4412 71.5927 75.7654 71.609C75.7573 71.609 75.7247 71.609 75.6759 71.609Z" fill="#7BA9BE"/>
<path d="M66.2323 76.7971C65.6623 76.7971 65.1494 76.39 65.0354 75.8037C64.0176 70.5277 67.3803 67.9304 69.3018 67.2872C69.945 67.0755 70.6371 67.4175 70.8488 68.0607C71.0605 68.6958 70.7185 69.3878 70.0834 69.5995C69.717 69.7298 66.5905 70.9674 67.4373 75.3396C67.5676 75.9991 67.1279 76.6424 66.4684 76.7726C66.387 76.7889 66.3137 76.7971 66.2323 76.7971Z" fill="#7BA9BE"/>
<path d="M57.5933 92.2329C57.1292 92.2329 56.6814 91.9643 56.4778 91.5164C56.201 90.8977 49.7526 76.2746 58.6843 67.5708C59.1647 67.0986 59.9382 67.1067 60.4104 67.5953C60.8827 68.0756 60.8745 68.8491 60.386 69.3214C52.6837 76.8283 58.6436 90.3766 58.7006 90.515C58.9774 91.1256 58.7006 91.8503 58.09 92.1271C57.9271 92.2004 57.7561 92.2329 57.5852 92.2329H57.5933Z" fill="#7BA9BE"/>
<path d="M61.7119 53.0142C59.6845 53.0142 57.7793 52.3465 55.8985 50.9705C55.353 50.5716 55.239 49.8062 55.6298 49.2607C56.0288 48.7152 56.7941 48.5931 57.3396 48.992C58.8052 50.0668 60.1975 50.5634 61.7119 50.5634C61.7363 50.5634 61.7689 50.5634 61.7933 50.5634C67.4764 50.4983 68.0138 44.2208 68.0382 43.9521C68.0871 43.2845 68.6733 42.7716 69.3491 42.8285C70.0167 42.8774 70.5297 43.4636 70.4808 44.1313C70.2691 47.1682 68.1848 52.9409 61.8259 53.0142C61.7933 53.0142 61.7526 53.0142 61.72 53.0142H61.7119Z" fill="#7BA9BE"/>
<path d="M56.4056 73.767C56.2346 73.767 56.0636 73.7344 55.9008 73.6611C53.1813 72.4317 48.5241 68.3118 50.3642 61.5377C50.5433 60.8863 51.211 60.5037 51.8623 60.6828C52.5137 60.8619 52.8964 61.5295 52.7172 62.1809C50.9586 68.6619 56.658 71.3244 56.9022 71.4384C57.5129 71.7152 57.7897 72.4398 57.5129 73.0586C57.3093 73.5064 56.8615 73.7751 56.3974 73.7751L56.4056 73.767Z" fill="#7BA9BE"/>
<path d="M61.966 61.513C61.4449 61.513 60.9564 61.1711 60.7935 60.6418C58.3998 52.7197 63.5374 50.4399 63.5944 50.4155C64.2132 50.1549 64.9297 50.448 65.1983 51.0668C65.4589 51.6856 65.1739 52.394 64.5633 52.6627C64.4004 52.7359 61.4123 54.2259 63.1384 59.9335C63.3338 60.5767 62.9674 61.2606 62.3242 61.456C62.2102 61.4886 62.0881 61.5049 61.9741 61.5049L61.966 61.513Z" fill="#7BA9BE"/>
<path d="M22.1471 20.7602C21.4713 20.7602 20.9258 20.2146 20.9258 19.5389V9.18224C20.9258 8.50645 21.4713 7.96094 22.1471 7.96094C22.8229 7.96094 23.3684 8.50645 23.3684 9.18224V19.5389C23.3684 20.2146 22.8229 20.7602 22.1471 20.7602Z" fill="#3D3935"/>
<path d="M26.8206 17.9431C26.6252 17.9431 26.4298 17.8943 26.2506 17.7966L17.1072 12.9358C16.5128 12.6183 16.2848 11.8773 16.6024 11.283C16.9199 10.6886 17.6608 10.4606 18.2552 10.7782L27.3987 15.6389C27.993 15.9565 28.221 16.6974 27.9035 17.2918C27.6836 17.707 27.2603 17.9431 26.8206 17.9431Z" fill="#3D3935"/>
<path d="M17.9534 18.2856C17.5625 18.2856 17.1799 18.0983 16.9356 17.7482C16.5611 17.1864 16.7076 16.4292 17.2694 16.0547L25.8511 10.2657C26.4129 9.89116 27.1701 10.0377 27.5446 10.5995C27.9192 11.1613 27.7726 11.9185 27.2108 12.2931L18.621 18.082C18.4093 18.2204 18.1732 18.2937 17.9371 18.2937L17.9534 18.2856Z" fill="#3D3935"/>
<path d="M50.6013 21.527C50.471 21.527 50.3489 21.5107 50.2268 21.47C49.836 21.3397 49.5266 21.0222 49.4207 20.6232L48.6472 17.7247L45.651 17.8875C45.2276 17.9038 44.8368 17.7165 44.6007 17.3827C44.3564 17.0489 44.2994 16.6092 44.446 16.2265L45.5288 13.4257L43.0048 11.7973C42.6547 11.5693 42.4512 11.1867 42.4512 10.7714C42.4512 10.3562 42.6629 9.9735 43.0048 9.74552L45.5288 8.11712L44.446 5.31627C44.2994 4.9336 44.3564 4.49393 44.6007 4.16011C44.8449 3.82629 45.2276 3.64716 45.651 3.65531L48.6472 3.81815L49.4207 0.919596C49.5266 0.520638 49.8278 0.2031 50.2268 0.0728284C50.6257 -0.0574436 51.0491 0.0239764 51.3748 0.28452L53.7034 2.18161L56.032 0.28452C56.3496 0.0239764 56.7811 -0.0574436 57.18 0.0728284C57.5709 0.2031 57.8721 0.520638 57.9861 0.919596L58.7596 3.81815L61.7558 3.65531C62.1874 3.63902 62.57 3.81815 62.8062 4.16011C63.0504 4.49393 63.1074 4.9336 62.9609 5.31627L61.878 8.11712L64.402 9.74552C64.7521 9.9735 64.9557 10.3562 64.9557 10.7714C64.9557 11.1867 64.744 11.5693 64.402 11.7973L61.878 13.4257L62.9609 16.2265C63.1074 16.6092 63.0504 17.0489 62.8062 17.3827C62.5619 17.7165 62.1792 17.9038 61.7558 17.8875L58.7596 17.7247L57.9861 20.6232C57.8803 21.0222 57.579 21.3397 57.18 21.47C56.7811 21.6003 56.3577 21.5188 56.032 21.2583L53.7034 19.3612L51.3748 21.2583C51.155 21.4374 50.8781 21.5351 50.6013 21.5351V21.527ZM53.7034 16.5685C53.9802 16.5685 54.2489 16.6581 54.4769 16.8453L56.1134 18.1725L56.659 16.137C56.8055 15.5752 57.3266 15.2169 57.9047 15.2332L60.0135 15.3472L59.2563 13.385C59.0446 12.8476 59.2481 12.237 59.7285 11.9194L61.4953 10.7714L59.7285 9.62339C59.24 9.30585 59.0446 8.6952 59.2563 8.15783L60.0135 6.18747L57.9047 6.30146C57.3266 6.31774 56.8055 5.95135 56.659 5.39769L56.1134 3.3622L54.4769 4.68934C54.0291 5.05573 53.3859 5.05573 52.9381 4.68934L51.3015 3.3622L50.756 5.39769C50.6095 5.95949 50.0802 6.31774 49.5103 6.30146L47.4015 6.18747L48.1587 8.15783C48.3704 8.6952 48.1669 9.30585 47.6865 9.62339L45.9197 10.7714L47.6865 11.9194C48.175 12.237 48.3704 12.8476 48.1587 13.385L47.4015 15.3472L49.5103 15.2332C50.0802 15.2169 50.6095 15.5752 50.756 16.137L51.3015 18.1725L52.9381 16.8453C53.166 16.6662 53.4347 16.5685 53.7116 16.5685H53.7034Z" fill="#3D3935"/>
<path d="M50.5592 43.6331C49.8834 43.6331 49.3379 43.0876 49.3379 42.4118C49.3379 41.736 49.8834 41.1905 50.551 41.1905C50.5836 41.1905 53.3356 41.1498 54.8663 39.4237C55.7375 38.4466 56.0795 37.0625 55.8922 35.3038C55.8189 34.6362 56.3074 34.0337 56.9751 33.9604C57.6427 33.8871 58.2452 34.3756 58.3185 35.0433C58.5872 37.5266 58.0335 39.554 56.6738 41.0684C54.3941 43.6005 50.7057 43.6331 50.551 43.6331H50.5592Z" fill="#7BA9BE"/>
</g>
<defs>
<clipPath id="clip0_1549_9861">
<rect width="84.3022" height="100" fill="white"/>
</clipPath>
</defs>
</svg>
