<svg width="76" height="100" viewBox="0 0 76 100" fill="none" xmlns="http://www.w3.org/2000/svg">
<g clip-path="url(#clip0_1549_9907)">
<path d="M1.2916 100C0.576914 100 0 99.4323 0 98.729V19.5221C0 16.3532 2.61764 13.7773 5.83802 13.7773C9.05841 13.7773 11.676 16.3532 11.676 19.5221V37.2564C11.676 37.4259 11.676 37.6038 11.6674 37.7902C11.6502 38.2223 11.633 38.6629 11.7363 38.9171C11.8569 38.7985 11.8913 38.6036 11.8913 37.9851C11.9085 35.6041 11.8999 32.5962 11.8913 29.817V8.15963C11.8913 4.99068 14.509 2.41484 17.7293 2.41484C20.9497 2.41484 23.5674 4.99068 23.5674 8.15963V37.7902C23.5674 37.7902 23.5674 37.8495 23.5674 37.8749C23.5415 38.2308 23.6018 38.6799 23.6879 38.9087C23.6965 38.9087 23.7137 38.8917 23.7224 38.8917C23.7568 38.8663 23.7912 38.8155 23.7912 38.7307C23.8171 37.3072 23.8085 35.8837 23.7912 34.4603C23.7912 33.74 23.7912 33.0198 23.7912 32.2996V5.74479C23.7912 2.57583 26.4089 0 29.6293 0C32.8496 0 35.4673 2.57583 35.4673 5.74479V35.6889C35.4673 36.8412 35.5103 38.2478 35.5706 38.7223C35.5878 38.7477 35.6137 38.7646 35.6395 38.7816C35.6998 38.3155 35.6912 37.3242 35.6912 36.8158V31.715V11.9387C35.6912 8.7697 38.3088 6.19387 41.5292 6.19387C44.7496 6.19387 47.3672 8.7697 47.3672 11.9387V46.9836L52.2753 40.9168C54.6604 37.8919 57.39 37.1886 60.3607 38.8324C61.7642 39.6119 62.7717 40.8744 63.2022 42.3996C63.6327 43.9248 63.4347 45.5177 62.6425 46.8988C62.5909 46.9836 58.1908 54.5247 54.3246 61.5828C53.9888 62.2013 53.1966 62.4301 52.5767 62.0996C51.9481 61.7692 51.7156 60.9981 52.0514 60.3796C55.9348 53.2961 60.3607 45.7211 60.4037 45.6448C60.8515 44.8653 60.9634 43.9587 60.7137 43.0859C60.464 42.2132 59.8871 41.493 59.0949 41.0524C57.5708 40.2051 56.1759 40.1288 54.3074 42.4928L47.0917 51.4235C46.7472 51.8471 46.1703 52.0081 45.6537 51.8302C45.1371 51.6523 44.7926 51.1693 44.7926 50.627V11.9471C44.7926 10.1762 43.3288 8.74428 41.5378 8.74428C39.7468 8.74428 38.283 10.1847 38.283 11.9471V36.8073C38.2916 38.0952 38.283 39.0612 38.1021 39.6628C37.8094 40.6372 37.0086 41.2981 36.0098 41.3828C34.8818 41.4845 33.7538 40.8405 33.2199 39.7899C33.0994 39.5526 32.8927 39.1544 32.8927 35.6973V5.74479C32.8927 3.9739 31.4289 2.54194 29.6379 2.54194C27.8469 2.54194 26.383 3.98238 26.383 5.74479V32.2996C26.383 33.0114 26.383 33.7316 26.383 34.4433C26.3917 35.8838 26.4003 37.3327 26.383 38.7731C26.3658 39.5611 26.0128 40.3067 25.41 40.8151C24.8159 41.315 24.0151 41.5438 23.2402 41.4421C21.5352 41.2134 20.8894 39.434 20.9928 37.7478V8.15963C20.9928 6.39722 19.5376 4.95679 17.7379 4.95679C15.9383 4.95679 14.4831 6.39722 14.4831 8.15963V29.8085C14.4917 32.5962 14.5003 35.6126 14.4831 37.9936C14.4831 38.7392 14.4745 39.8746 13.5015 40.7728C12.8557 41.3743 12.0807 41.6455 11.3316 41.5353C10.6083 41.4337 9.97114 40.9846 9.54922 40.2728C9.02397 39.3916 9.05841 38.4511 9.09285 37.6885C9.09285 37.536 9.10146 37.392 9.10146 37.2479V19.5136C9.10146 17.7428 7.63765 16.3108 5.84663 16.3108C4.05562 16.3108 2.59181 17.7512 2.59181 19.5136V98.7206C2.59181 99.4238 2.01489 99.9915 1.30021 99.9915L1.2916 100Z" fill="#3D3935"/>
<path d="M38.1021 99.9999C37.3875 99.9999 36.8105 99.4322 36.8105 98.7289V82.918C36.8105 82.469 37.043 82.0623 37.4305 81.8335C41.3656 79.4949 44.586 75.6481 46.7386 70.7252C47.1864 69.7084 47.8408 68.3527 48.6846 66.7089C49.0032 66.0819 49.7868 65.8362 50.4154 66.1497C51.0526 66.4632 51.3109 67.2343 50.9837 67.8528C50.1657 69.4542 49.5285 70.7591 49.1066 71.725C46.8506 76.8852 43.501 80.9862 39.3851 83.6213V98.7289C39.3851 99.4322 38.8082 99.9999 38.0935 99.9999H38.1021Z" fill="#3D3935"/>
<path d="M14.6811 100.001H14.6639C13.9492 100.001 13.3809 99.4161 13.3895 98.7128L13.6134 80.3007C4.90802 76.0132 6.346 49.4584 6.54404 46.3488C6.5871 45.6455 7.21567 45.1202 7.91314 45.1625C8.62782 45.2049 9.17029 45.8065 9.11863 46.5098C8.39533 57.8892 9.42 76.5555 15.2752 78.2247C15.8349 78.3857 16.2138 78.8856 16.2052 79.4618L15.9727 98.7467C15.9727 99.4415 15.3872 100.001 14.6811 100.001Z" fill="#7BA9BE"/>
<path d="M18.461 100.001H18.4524C17.7377 100.001 17.1694 99.4163 17.1694 98.7215L17.3588 79.9535L14.8101 44.9001C14.7584 44.1968 15.2923 43.5953 16.007 43.5444C16.7303 43.4936 17.333 44.0189 17.3847 44.7222L19.9334 79.8264C19.9334 79.8264 19.9334 79.8942 19.9334 79.9281L19.744 98.7469C19.744 99.4417 19.1585 100.009 18.4524 100.009L18.461 100.001Z" fill="#7BA9BE"/>
<path d="M22.7057 100C21.991 100 21.4141 99.4324 21.4141 98.7291L21.4571 79.8679C21.4571 79.8679 21.4571 79.7916 21.4571 79.7493L24.953 43.2978C25.0219 42.5946 25.6591 42.0777 26.3566 42.1539C27.0713 42.2217 27.5879 42.8403 27.519 43.5351L24.0317 79.9357L23.9886 98.7461C23.9886 99.4493 23.4117 100.017 22.697 100.017L22.7057 100Z" fill="#7BA9BE"/>
<path d="M26.9604 100.001C26.9604 100.001 26.9346 100.001 26.9174 100.001C26.2027 99.9754 25.643 99.3908 25.6688 98.6875L26.2802 80.5635C26.2802 80.4533 26.2974 80.3516 26.3318 80.25L37.0521 44.4425C37.2502 43.7646 37.9735 43.3833 38.6537 43.5782C39.3339 43.7731 39.73 44.4849 39.5234 45.1542L28.8548 80.8007L28.2434 98.7638C28.2176 99.4501 27.6493 99.9924 26.9518 99.9924L26.9604 100.001Z" fill="#7BA9BE"/>
<path d="M31.214 100C31.214 100 31.1623 100 31.1278 100C30.4132 99.9578 29.8793 99.3478 29.9224 98.653L31.102 80.7153C31.1106 80.5289 31.1709 80.3425 31.257 80.1815L44.7155 56.2703C45.0599 55.6603 45.8435 55.4315 46.472 55.7704C47.092 56.1093 47.3245 56.8804 46.9801 57.4989L33.6594 81.1559L32.4969 98.8055C32.4539 99.4749 31.8856 99.9917 31.2053 99.9917L31.214 100Z" fill="#7BA9BE"/>
<path d="M68.0484 91.2895H61.8573C61.1427 91.2895 60.5657 90.7218 60.5657 90.0186V84.7737H55.2271C54.5125 84.7737 53.9355 84.206 53.9355 83.5027V77.4105C53.9355 76.7073 54.5125 76.1395 55.2271 76.1395H60.5657V70.8862C60.5657 70.1829 61.1427 69.6152 61.8573 69.6152H68.0484C68.7631 69.6152 69.34 70.1829 69.34 70.8862V76.1395H74.6786C75.3933 76.1395 75.9702 76.7073 75.9702 77.4105V83.5027C75.9702 84.206 75.3933 84.7737 74.6786 84.7737H69.34V90.0186C69.34 90.7218 68.7631 91.2895 68.0484 91.2895ZM63.1489 88.7476H66.7568V83.5027C66.7568 82.7994 67.3337 82.2317 68.0484 82.2317H73.387V78.6815H68.0484C67.3337 78.6815 66.7568 78.1138 66.7568 77.4105V72.1572H63.1489V77.4105C63.1489 78.1138 62.572 78.6815 61.8573 78.6815H56.5187V82.2317H61.8573C62.572 82.2317 63.1489 82.7994 63.1489 83.5027V88.7476Z" fill="#3D3935"/>
</g>
<defs>
<clipPath id="clip0_1549_9907">
<rect width="75.9718" height="100" fill="white"/>
</clipPath>
</defs>
</svg>
