<svg width="29" height="28" viewBox="0 0 29 28" fill="none" xmlns="http://www.w3.org/2000/svg">
<path d="M20.7222 9.11046H18.9444C18.9444 6.62157 16.9889 4.66602 14.5 4.66602C12.0111 4.66602 10.0556 6.62157 10.0556 9.11046H8.27778C7.3 9.11046 6.5 9.91046 6.5 10.8882V21.5549C6.5 22.5327 7.3 23.3327 8.27778 23.3327H20.7222C21.7 23.3327 22.5 22.5327 22.5 21.5549V10.8882C22.5 9.91046 21.7 9.11046 20.7222 9.11046ZM14.5 6.44379C16.0111 6.44379 17.1667 7.59935 17.1667 9.11046H11.8333C11.8333 7.59935 12.9889 6.44379 14.5 6.44379ZM20.7222 21.5549H8.27778V10.8882H20.7222V21.5549ZM14.5 14.4438C13.2975 14.4438 12.3202 13.7121 11.9711 12.6517C11.8176 12.1854 11.4354 11.7771 10.9444 11.7771C10.4535 11.7771 10.0462 12.1789 10.1401 12.6608C10.5401 14.7136 12.3144 16.2216 14.5 16.2216C16.6856 16.2216 18.4599 14.7136 18.8599 12.6608C18.9538 12.1789 18.5465 11.7771 18.0556 11.7771C17.5646 11.7771 17.1824 12.1854 17.0289 12.6517C16.6798 13.7121 15.7025 14.4438 14.5 14.4438Z" fill="#3D3935"/>
</svg>
