<svg width="64" height="64" viewBox="0 0 64 64" fill="none" xmlns="http://www.w3.org/2000/svg">
<rect x="0.8" y="0.8" width="62.4" height="62.4" rx="31.2" fill="#151515"/>
<rect x="0.8" y="0.8" width="62.4" height="62.4" rx="31.2" stroke="white" stroke-width="1.6"/>
<path d="M33.507 24.4001H25.4003C25.071 24.4001 24.7543 24.4128 24.4503 24.4508C21.043 24.7421 19.333 26.7561 19.333 30.4675V35.5341C19.333 40.6008 21.3597 41.6015 25.4003 41.6015H25.907C26.1857 41.6015 26.553 41.7915 26.7177 42.0068L28.2377 44.0335C28.909 44.9328 29.9983 44.9328 30.6697 44.0335L32.1897 42.0068C32.3797 41.7535 32.6837 41.6015 33.0003 41.6015H33.507C37.2183 41.6015 39.2323 39.9041 39.5237 36.4841C39.5617 36.1801 39.5743 35.8635 39.5743 35.5341V30.4675C39.5743 26.4268 37.5477 24.4001 33.507 24.4001ZM25.033 34.5335C24.3237 34.5335 23.7663 33.9635 23.7663 33.2668C23.7663 32.5701 24.3363 32.0001 25.033 32.0001C25.7297 32.0001 26.2997 32.5701 26.2997 33.2668C26.2997 33.9635 25.7297 34.5335 25.033 34.5335ZM29.4537 34.5335C28.7443 34.5335 28.187 33.9635 28.187 33.2668C28.187 32.5701 28.757 32.0001 29.4537 32.0001C30.1503 32.0001 30.7203 32.5701 30.7203 33.2668C30.7203 33.9635 30.163 34.5335 29.4537 34.5335ZM33.887 34.5335C33.1777 34.5335 32.6203 33.9635 32.6203 33.2668C32.6203 32.5701 33.1903 32.0001 33.887 32.0001C34.5837 32.0001 35.1537 32.5701 35.1537 33.2668C35.1537 33.9635 34.5837 34.5335 33.887 34.5335Z" fill="white"/>
<path d="M44.6413 25.4008V30.4675C44.6413 33.0008 43.856 34.7235 42.2853 35.6735C41.9053 35.9015 41.462 35.5975 41.462 35.1542L41.4747 30.4675C41.4747 25.4008 38.574 22.5002 33.5073 22.5002L25.7933 22.5128C25.35 22.5128 25.046 22.0695 25.274 21.6895C26.224 20.1188 27.9467 19.3335 30.4673 19.3335H38.574C42.6147 19.3335 44.6413 21.3602 44.6413 25.4008Z" fill="white"/>
</svg>
