<svg width="13" height="13" viewBox="0 0 13 13" fill="none" xmlns="http://www.w3.org/2000/svg">
<path d="M8.1931 4.29387L8.30943 4.52959L8.56956 4.56739L11.7336 5.02715C11.988 5.06411 12.0895 5.37671 11.9055 5.55613L9.61595 7.78785L9.42772 7.97133L9.47216 8.23042L10.0126 11.3816C10.0561 11.635 9.79017 11.8282 9.56265 11.7086L6.73267 10.2208L6.5 10.0984L6.26733 10.2208L3.43735 11.7086C3.20983 11.8282 2.94391 11.635 2.98736 11.3816L3.52784 8.23041L3.57228 7.97133L3.38405 7.78785L1.09454 5.55613C0.910473 5.37671 1.01204 5.06411 1.26642 5.02715L4.43044 4.56739L4.69057 4.52959L4.8069 4.29387L6.2219 1.42678C6.33566 1.19628 6.66434 1.19628 6.7781 1.42678L8.1931 4.29387Z" stroke="#9B9B9B"/>
</svg>
