<svg width="21" height="18" viewBox="0 0 21 18" fill="none" xmlns="http://www.w3.org/2000/svg">
<path d="M2.40609 10.3479L10.0346 17.4424C10.2143 17.6095 10.3042 17.6931 10.4136 17.6931C10.523 17.6931 10.6129 17.6095 10.7926 17.4424L18.4211 10.3479C18.745 10.0466 18.907 9.89599 19.0366 9.75554C20.6057 8.05554 20.8065 5.50214 19.5224 3.57781C19.4163 3.41883 19.2798 3.24473 19.007 2.89655L18.7061 2.5127L18.7059 2.51245C18.5729 2.34268 18.5064 2.25777 18.4563 2.19835C16.42 -0.221176 12.5809 0.194095 11.109 2.99311C11.0728 3.06188 11.026 3.1591 10.9322 3.35352L10.9322 3.35361C10.9176 3.38393 10.9103 3.39909 10.9052 3.40858C10.696 3.80284 10.1311 3.80284 9.92195 3.40858C9.91692 3.39909 9.90961 3.38393 9.89499 3.35361L9.89496 3.35354C9.80122 3.1591 9.75435 3.06188 9.71818 2.99311C8.24629 0.194095 4.40723 -0.221176 2.37084 2.19835C2.3208 2.2578 2.25422 2.34277 2.12104 2.5127L1.82022 2.89654C1.54735 3.24473 1.41091 3.41883 1.30482 3.57781C0.0207019 5.50214 0.221467 8.05554 1.79055 9.75554C1.92019 9.89599 2.08215 10.0466 2.40609 10.3479Z" fill="#FF4242"/>
</svg>
