<svg width="22" height="22" viewBox="0 0 22 22" fill="none" xmlns="http://www.w3.org/2000/svg">
<path d="M19.8389 21.2531C20.2294 21.6436 20.8626 21.6436 21.2531 21.2531C21.6436 20.8626 21.6436 20.2294 21.2531 19.8389L19.8389 21.2531ZM13.5026 4.35035C16.0296 6.87739 16.0296 10.9756 13.5026 13.5026L14.9168 14.9168C18.2249 11.6087 18.2249 6.24422 14.9168 2.93614L13.5026 4.35035ZM13.5026 13.5026C12.6099 14.3952 11.1129 15.2224 9.44067 15.4037C7.81018 15.5805 5.99625 15.1485 4.35035 13.5026L2.93614 14.9168C5.03713 17.0178 7.4623 17.6299 9.65626 17.392C11.8085 17.1587 13.7212 16.1124 14.9168 14.9168L13.5026 13.5026ZM4.35035 13.5026C1.82332 10.9756 1.82332 6.87739 4.35035 4.35035L2.93614 2.93614C-0.371942 6.24422 -0.371942 11.6087 2.93614 14.9168L4.35035 13.5026ZM4.35035 4.35035C6.87739 1.82332 10.9756 1.82332 13.5026 4.35035L14.9168 2.93614C11.6087 -0.371942 6.24422 -0.371942 2.93614 2.93614L4.35035 4.35035ZM21.2531 19.8389L15.239 13.8248L13.8248 15.239L19.8389 21.2531L21.2531 19.8389Z" fill="#5C5C5C"/>
</svg>
