<svg width="21" height="18" viewBox="0 0 21 18" fill="none" xmlns="http://www.w3.org/2000/svg">
<path d="M11.833 3.78786L11.8297 3.7947C11.8198 3.81524 11.8034 3.8493 11.7886 3.8773L11.833 3.78786ZM11.833 3.78786L11.833 3.78778C11.9312 3.5842 11.9682 3.50767 11.9941 3.45855L11.9941 3.45854C13.1354 1.28817 16.1122 0.966165 17.6913 2.84228C17.727 2.88473 17.7796 2.95154 17.9189 3.12929L17.9191 3.12954L17.9199 3.13066L17.9201 3.13092L18.2199 3.51339L19.007 2.89655L18.2199 3.51339C18.5038 3.87571 18.6109 4.01355 18.6906 4.13288C19.7183 5.67304 19.5576 7.71668 18.3018 9.07729C18.2045 9.18271 18.0772 9.30212 17.7401 9.61561L10.4136 16.4292L3.0871 9.61561C2.75001 9.30211 2.62269 9.18271 2.52539 9.07729L1.79055 9.75554L2.52539 9.07729C1.26955 7.71668 1.10887 5.67304 2.13662 4.13288C2.21626 4.01354 2.32336 3.87571 2.60731 3.51338L2.90813 3.12954C3.04757 2.95161 3.10018 2.88476 3.13593 2.84228C4.71495 0.966165 7.69178 1.28817 8.8331 3.45854C8.85894 3.50767 8.89602 3.58422 8.99417 3.7878L8.99415 3.78781L8.99544 3.79043C8.99607 3.79176 8.99675 3.79316 8.99745 3.79462C9.00733 3.81516 9.02373 3.84927 9.0386 3.8773L11.833 3.78786ZM9.03861 3.87732C9.62369 4.97993 11.2035 4.97993 11.7886 3.87732H9.03861Z" stroke="#E0E0E2" stroke-width="2"/>
</svg>
