<svg width="20" height="21" viewBox="0 0 20 21" fill="none" xmlns="http://www.w3.org/2000/svg">
<g clip-path="url(#clip0_1876_3665)">
<path d="M1.25 13V10.5C1.25 3.625 7.5 1.75 10 1.75C12.5 1.75 18.75 3.625 18.75 10.5V13M1.25 13C1.25 13.6939 1.25 14.4429 1.37299 15.0255C1.55558 15.8903 2.5 16.75 3.75 16.75C5 16.75 5.94442 15.8903 6.12701 15.0255C6.25 14.4429 6.25 13.6939 6.25 13C6.25 12.3061 6.25 11.5571 6.12701 10.9745C5.94442 10.1097 5 9.25 3.75 9.25C2.5 9.25 1.55558 10.1097 1.37299 10.9745C1.25 11.5571 1.25 12.3061 1.25 13ZM18.75 13C18.75 13.6939 18.75 14.4429 18.627 15.0255C18.4444 15.8903 17.5 16.75 16.25 16.75C15 16.75 14.0556 15.8903 13.873 15.0255C13.75 14.4429 13.75 13.6939 13.75 13C13.75 12.3061 13.75 11.5571 13.873 10.9745C14.0556 10.1097 15 9.25 16.25 9.25C17.5 9.25 18.4444 10.1097 18.627 10.9745C18.75 11.5571 18.75 12.3061 18.75 13ZM18.75 13C18.75 19.875 15.625 19.25 10 19.25" stroke="#3D3935" stroke-width="1.8" stroke-linecap="round" stroke-linejoin="round"/>
</g>
<defs>
<clipPath id="clip0_1876_3665">
<rect width="20" height="20" fill="white" transform="translate(0 0.5)"/>
</clipPath>
</defs>
</svg>
