<svg width="26" height="27" viewBox="0 0 26 27" fill="none" xmlns="http://www.w3.org/2000/svg">
<path d="M10.2923 10.904C10.4961 10.3248 10.8982 9.8364 11.4276 9.52529C11.957 9.21418 12.5794 9.10046 13.1845 9.20426C13.7897 9.30806 14.3386 9.6227 14.7341 10.0924C15.1295 10.5622 15.3459 11.1567 15.345 11.7707C15.345 13.504 14.0895 13.2848 13.1393 14.3707C12.935 14.6042 12.8143 15.0207 12.8143 15.0207M12.8143 17.8374H12.823M21.6673 13.5002C21.6708 14.8459 21.3564 16.1734 20.7496 17.3747C20.0302 18.8141 18.9243 20.0248 17.5557 20.8712C16.1871 21.7176 14.6098 22.1662 13.0007 22.1668C11.893 22.1697 10.7976 21.9572 9.77492 21.5436C9.34579 21.37 8.87992 21.2909 8.42353 21.3682L6.20732 21.6042C5.45226 21.6846 4.81558 21.0478 4.89617 20.2928L5.13264 18.0773C5.20995 17.6209 5.13079 17.155 4.95724 16.7259C4.54363 15.7032 4.33113 14.6078 4.33401 13.5002C4.33464 11.891 4.78326 10.3137 5.62964 8.94513C6.47603 7.57651 7.68673 6.47057 9.12615 5.75117C10.3274 5.14443 11.6549 4.83002 13.0007 4.83353H13.5105C15.6357 4.95077 17.643 5.84779 19.148 7.35282C20.653 8.85786 21.55 10.8652 21.6673 12.9904V13.5002Z" stroke="#3D3935" stroke-width="2" stroke-linecap="round" stroke-linejoin="round"/>
</svg>
