<svg width="24" height="24" viewBox="0 0 24 24" fill="none" xmlns="http://www.w3.org/2000/svg">
<path d="M11.9947 5.03194C11.1729 5.03194 10.3884 5.12532 9.64134 5.33077V3.57513C9.64134 1.61404 8.0538 0.0078125 6.07403 0.0078125C4.11294 0.0078125 2.52539 1.61404 2.52539 3.57513V14.5199C2.52539 19.7494 6.76508 24.0078 12.0133 24.0078C17.2616 24.0078 21.5013 19.7681 21.5013 14.5199C21.4826 9.27162 17.2429 5.03194 11.9947 5.03194ZM11.9947 22.5697C7.54952 22.5697 3.92617 18.965 3.92617 14.5012V3.57513C3.92617 2.39847 4.8787 1.42727 6.07403 1.42727C7.26936 1.42727 8.22189 2.3798 8.22189 3.57513V14.5199C8.22189 16.6117 9.9215 18.2926 11.9947 18.2926C14.0865 18.2926 15.7674 16.593 15.7674 14.5199C15.7674 12.4467 14.0678 10.7471 11.9947 10.7471C11.0982 10.7471 10.2764 11.0646 9.64134 11.5689V9.88797C10.3511 9.5331 11.1542 9.32766 11.9947 9.32766C14.8709 9.32766 17.2055 11.6623 17.2055 14.5386C17.2055 17.4148 14.8709 19.7494 11.9947 19.7494C9.11839 19.7494 6.78376 17.4148 6.78376 14.5386V3.57513C6.78376 3.18291 6.46625 2.8654 6.07403 2.8654C5.68181 2.8654 5.3643 3.18291 5.3643 3.57513V14.5199C5.3643 18.1806 8.33395 21.1502 11.9947 21.1502C15.6554 21.1502 18.625 18.1806 18.625 14.5199C18.625 10.8592 15.6554 7.88952 11.9947 7.88952C11.1729 7.88952 10.3697 8.03894 9.64134 8.3191V6.80626C10.3884 6.58213 11.1729 6.45139 11.9947 6.45139C16.4398 6.45139 20.0631 10.0561 20.0631 14.5199C20.0631 18.965 16.4585 22.5697 11.9947 22.5697ZM9.64134 14.5199C9.64134 13.2125 10.6873 12.1666 11.9947 12.1666C13.302 12.1666 14.348 13.2125 14.348 14.5199C14.348 15.8273 13.302 16.8732 11.9947 16.8732C10.7059 16.8732 9.64134 15.8273 9.64134 14.5199Z" fill="white"/>
</svg>
