<svg width="26" height="27" viewBox="0 0 26 27" fill="none" xmlns="http://www.w3.org/2000/svg">
<path d="M19.2222 8.61095H17.4444C17.4444 6.12206 15.4889 4.1665 13 4.1665C10.5111 4.1665 8.55556 6.12206 8.55556 8.61095H6.77778C5.8 8.61095 5 9.41095 5 10.3887V21.0554C5 22.0332 5.8 22.8332 6.77778 22.8332H19.2222C20.2 22.8332 21 22.0332 21 21.0554V10.3887C21 9.41095 20.2 8.61095 19.2222 8.61095ZM13 5.94428C14.5111 5.94428 15.6667 7.09984 15.6667 8.61095H10.3333C10.3333 7.09984 11.4889 5.94428 13 5.94428ZM19.2222 21.0554H6.77778V10.3887H19.2222V21.0554ZM13 13.9443C11.7975 13.9443 10.8202 13.2125 10.4711 12.1522C10.3176 11.6859 9.93536 11.2776 9.44444 11.2776C8.95352 11.2776 8.54623 11.6794 8.64012 12.1613C9.04015 14.2141 10.8144 15.7221 13 15.7221C15.1856 15.7221 16.9599 14.2141 17.3599 12.1613C17.4538 11.6794 17.0465 11.2776 16.5556 11.2776C16.0646 11.2776 15.6824 11.6859 15.5289 12.1522C15.1798 13.2125 14.2025 13.9443 13 13.9443Z" fill="#3D3935"/>
</svg>
