<svg width="26" height="27" viewBox="0 0 26 27" fill="none" xmlns="http://www.w3.org/2000/svg">
<path d="M18.6713 22.1668C19.3315 22.1668 19.9404 21.8107 20.2641 21.2353V21.2353C20.6064 20.6268 20.5689 19.8755 20.062 19.3953C18.9716 18.3622 16.6803 16.7502 12.9993 16.7502C9.32505 16.7502 7.14619 18.3564 6.12463 19.3897C5.64293 19.877 5.62471 20.6119 5.96062 21.2091V21.2091" stroke="#3D3935" stroke-width="2" stroke-linecap="round" stroke-linejoin="round"/>
<path d="M13.1197 12.5372C15.247 12.5372 16.9716 10.8127 16.9716 8.68535C16.9716 6.55803 15.247 4.8335 13.1197 4.8335C10.9924 4.8335 9.26787 6.55803 9.26787 8.68535C9.26787 10.8127 10.9924 12.5372 13.1197 12.5372Z" stroke="#3D3935" stroke-width="2" stroke-linecap="round" stroke-linejoin="round"/>
</svg>
