<svg width="24" height="24" viewBox="0 0 24 24" fill="none" xmlns="http://www.w3.org/2000/svg">
<circle cx="12" cy="12" r="12" fill="white"/>
<path d="M12.0348 5.78906C8.30137 5.78906 5.29053 8.19771 5.29053 11.1218C5.29053 13.0199 6.54304 14.6819 8.42181 15.6309L7.78592 18.0059C7.77393 18.0415 7.77208 18.0797 7.78059 18.1162C7.7891 18.1528 7.80762 18.1863 7.83409 18.213C7.87268 18.247 7.92234 18.2658 7.97379 18.266C8.01646 18.2625 8.05694 18.2457 8.08941 18.2178L10.8257 16.3728C11.2296 16.4285 11.6367 16.4575 12.0445 16.4595C15.7731 16.4595 18.7888 14.0508 18.7888 11.1218C18.7888 8.1929 15.7635 5.78906 12.0348 5.78906Z" fill="#3D3935"/>
<path d="M7.65092 10.2781H6.91387C6.82251 10.2808 6.73229 10.2574 6.65373 10.2107C6.61885 10.1888 6.58887 10.16 6.56565 10.126C6.54244 10.092 6.52651 10.0536 6.51885 10.0131C6.5165 9.98749 6.5165 9.96174 6.51885 9.9361C6.51656 9.88812 6.52587 9.84028 6.546 9.79667C6.56612 9.75306 6.59647 9.71497 6.63446 9.68559C6.71845 9.62476 6.81981 9.59263 6.9235 9.59403H9.1443C9.23638 9.59079 9.32722 9.61604 9.40444 9.6663C9.44014 9.68718 9.47076 9.71576 9.49409 9.74992C9.51741 9.78408 9.53286 9.82297 9.53933 9.86383C9.54168 9.88786 9.54168 9.91207 9.53933 9.9361C9.5416 9.98476 9.53231 10.0333 9.51221 10.0776C9.49211 10.122 9.46178 10.161 9.42371 10.1914C9.34177 10.2521 9.24138 10.2828 9.13948 10.2781H8.42652V12.812C8.42941 12.866 8.42106 12.92 8.40198 12.9706C8.38291 13.0212 8.35353 13.0673 8.31572 13.1059C8.27945 13.1428 8.23586 13.1718 8.18774 13.1909C8.13962 13.21 8.08804 13.2187 8.03631 13.2167C7.94584 13.2193 7.85728 13.1904 7.78581 13.1348C7.71776 13.0806 7.67158 13.0036 7.65574 12.918C7.65098 12.8828 7.65098 12.8472 7.65574 12.812L7.65092 10.2781Z" fill="white"/>
<path d="M9.75186 9.78221C9.77305 9.70293 9.82281 9.63429 9.89157 9.5895C9.96483 9.54798 10.0483 9.52794 10.1324 9.53169H10.3155C10.4048 9.5285 10.4932 9.55018 10.5708 9.59432C10.6531 9.64966 10.7116 9.73392 10.7346 9.83037L11.6981 12.5522C11.7231 12.6232 11.744 12.6956 11.7607 12.769C11.7623 12.7995 11.7623 12.83 11.7607 12.8605C11.7623 12.9075 11.7537 12.9542 11.7354 12.9975C11.7171 13.0407 11.6895 13.0795 11.6547 13.111C11.621 13.1456 11.5804 13.1729 11.5357 13.1911C11.4909 13.2093 11.4429 13.2181 11.3946 13.217C11.3203 13.2244 11.2457 13.2066 11.1827 13.1664C11.1198 13.1262 11.0723 13.0659 11.0477 12.9954L10.8454 12.4029H9.57844L9.37611 12.9954C9.35218 13.0673 9.30405 13.1287 9.23992 13.1691C9.1758 13.2095 9.09964 13.2264 9.02444 13.217C8.94298 13.2191 8.86319 13.1936 8.79802 13.1447C8.73454 13.0942 8.6917 13.0223 8.67759 12.9424C8.67504 12.9152 8.67504 12.8877 8.67759 12.8605C8.66932 12.8127 8.66932 12.7638 8.67759 12.716C8.67759 12.663 8.71131 12.6052 8.73058 12.5522L9.75186 9.78221ZM10.2336 10.4133L9.77595 11.8585H10.6864L10.2336 10.4133Z" fill="white"/>
<path d="M11.871 9.93635C11.8661 9.82824 11.9042 9.7226 11.977 9.6425C12.014 9.60519 12.0584 9.57602 12.1074 9.55694C12.1563 9.53785 12.2087 9.52922 12.2612 9.53165C12.3515 9.5306 12.4395 9.55941 12.5117 9.61357C12.5786 9.67008 12.6231 9.74868 12.637 9.83515C12.6417 9.8687 12.6417 9.9028 12.637 9.93635V12.4703H13.9618C14.0536 12.4691 14.1438 12.4941 14.2219 12.5425C14.257 12.5641 14.2871 12.5929 14.3103 12.6269C14.3336 12.661 14.3494 12.6995 14.3568 12.74C14.3568 12.74 14.3568 12.7882 14.3568 12.8123C14.3591 12.8603 14.3498 12.9081 14.3296 12.9517C14.3095 12.9953 14.2792 13.0334 14.2412 13.0628C14.1572 13.1236 14.0558 13.1557 13.9521 13.1543H12.3239C12.2202 13.161 12.1171 13.134 12.03 13.0773C11.9521 13.019 11.9002 12.9325 11.8855 12.8364C11.8819 12.7835 11.8819 12.7303 11.8855 12.6774L11.871 9.93635Z" fill="white"/>
<path d="M14.4436 9.93601C14.4407 9.82821 14.4786 9.7233 14.5496 9.64216C14.6218 9.57655 14.7144 9.53781 14.8118 9.53254C14.9092 9.52728 15.0055 9.55578 15.0843 9.61323C15.1527 9.66924 15.1988 9.7478 15.2144 9.8348C15.2168 9.86848 15.2168 9.90233 15.2144 9.93601V11.1162L16.4332 9.70955C16.4801 9.66156 16.53 9.61656 16.5825 9.57471C16.632 9.54524 16.6887 9.53018 16.7463 9.53131C16.8305 9.53085 16.9128 9.55607 16.9824 9.60358C17.0151 9.62564 17.0431 9.6541 17.0646 9.6872C17.0861 9.72031 17.1007 9.7574 17.1076 9.79629C17.1096 9.80582 17.1096 9.81568 17.1076 9.82522C17.1053 9.83634 17.1053 9.8478 17.1076 9.85892C17.1074 9.90961 17.0942 9.95942 17.0691 10.0035C17.0435 10.0501 17.0128 10.0937 16.9775 10.1335L16.1779 11.0103L17.1413 12.5036V12.5518C17.1913 12.6208 17.2304 12.6973 17.2569 12.7783V12.8023C17.2625 12.8581 17.2545 12.9145 17.2335 12.9665C17.2125 13.0185 17.1792 13.0647 17.1365 13.101C17.0561 13.1617 16.9578 13.194 16.8571 13.1925C16.7902 13.1953 16.7237 13.1803 16.6644 13.1491C16.6002 13.1061 16.5474 13.0483 16.5103 12.9806L15.6142 11.5353L15.1855 11.9834V12.7878C15.1884 12.8956 15.1505 13.0006 15.0795 13.0817C15.0414 13.1189 14.9961 13.148 14.9464 13.167C14.8967 13.1861 14.8436 13.1948 14.7905 13.1925C14.7016 13.1944 14.6148 13.1655 14.5448 13.1106C14.4767 13.0564 14.4305 12.9794 14.4147 12.8939C14.4099 12.8587 14.4099 12.823 14.4147 12.7878L14.4436 9.93601Z" fill="white"/>
</svg>
