<svg width="51" height="51" viewBox="0 0 51 51" fill="none" xmlns="http://www.w3.org/2000/svg">
<path fill-rule="evenodd" clip-rule="evenodd" d="M25.502 40.2181C35.9947 40.2181 44.502 33.0314 44.502 24.1679C44.502 15.302 35.9947 8.11523 25.502 8.11523C15.0092 8.11523 6.50195 15.302 6.50195 24.1679C6.50195 27.6282 7.7987 30.8345 10.0051 33.4541L7.68945 44.334L16.99 38.5224C19.685 39.6523 22.5797 40.229 25.502 40.2181Z" fill="#B0B0B0"/>
<path fill-rule="evenodd" clip-rule="evenodd" d="M25.4996 27.1152C26.6871 27.1152 27.8746 25.9277 27.8746 24.7402C27.8746 23.5527 26.6871 22.3652 25.4996 22.3652C24.3121 22.3652 23.127 23.5527 23.127 24.7402C23.127 25.9277 24.3121 27.1152 25.4996 27.1152ZM15.9996 27.1152C17.1871 27.1152 18.3746 25.9277 18.3746 24.7402C18.3746 23.5527 17.1871 22.3652 15.9996 22.3652C14.8121 22.3652 13.627 23.5527 13.627 24.7402C13.627 25.9277 14.8121 27.1152 15.9996 27.1152ZM34.9996 27.1152C36.1871 27.1152 37.377 25.9277 37.377 24.7402C37.377 23.5527 36.1895 22.3652 35.002 22.3652C33.8145 22.3652 32.627 23.5527 32.627 24.7402C32.627 25.9277 33.8145 27.1152 35.002 27.1152" fill="white"/>
</svg>
