<svg width="16" height="17" viewBox="0 0 16 17" fill="none" xmlns="http://www.w3.org/2000/svg">
<path d="M12.6667 7.16634H13.3333C13.5101 7.16634 13.6797 7.23658 13.8047 7.3616C13.9298 7.48663 14 7.6562 14 7.83301V14.4997C14 14.6765 13.9298 14.8461 13.8047 14.9711C13.6797 15.0961 13.5101 15.1663 13.3333 15.1663H2.66667C2.48986 15.1663 2.32029 15.0961 2.19526 14.9711C2.07024 14.8461 2 14.6765 2 14.4997V7.83301C2 7.6562 2.07024 7.48663 2.19526 7.3616C2.32029 7.23658 2.48986 7.16634 2.66667 7.16634H3.33333V6.49967C3.33333 5.262 3.825 4.07501 4.70017 3.19984C5.57534 2.32467 6.76232 1.83301 8 1.83301C9.23768 1.83301 10.4247 2.32467 11.2998 3.19984C12.175 4.07501 12.6667 5.262 12.6667 6.49967V7.16634ZM3.33333 8.49967V13.833H12.6667V8.49967H3.33333ZM7.33333 9.83301H8.66667V12.4997H7.33333V9.83301ZM11.3333 7.16634V6.49967C11.3333 5.61562 10.9821 4.76777 10.357 4.14265C9.7319 3.51753 8.88406 3.16634 8 3.16634C7.11595 3.16634 6.2681 3.51753 5.64298 4.14265C5.01786 4.76777 4.66667 5.61562 4.66667 6.49967V7.16634H11.3333Z" fill="#9B9B9B"/>
</svg>
