<svg width="173" height="172" viewBox="0 0 173 172" fill="none" xmlns="http://www.w3.org/2000/svg">
<mask id="mask0_602_3663" style="mask-type:alpha" maskUnits="userSpaceOnUse" x="0" y="0" width="173" height="172">
<rect x="0.5" width="172" height="172" fill="#D9D9D9"/>
</mask>
<g mask="url(#mask0_602_3663)">
<path d="M7.66602 150.5L86.4993 14.333L165.333 150.5H7.66602ZM32.391 136.166H140.608L86.4993 42.9997L32.391 136.166ZM86.4993 129C88.5299 129 90.232 128.313 91.6056 126.939C92.9792 125.566 93.666 123.864 93.666 121.833C93.666 119.802 92.9792 118.1 91.6056 116.727C90.232 115.353 88.5299 114.666 86.4993 114.666C84.4688 114.666 82.7667 115.353 81.3931 116.727C80.0195 118.1 79.3327 119.802 79.3327 121.833C79.3327 123.864 80.0195 125.566 81.3931 126.939C82.7667 128.313 84.4688 129 86.4993 129ZM79.3327 107.5H93.666V71.6663H79.3327V107.5Z" fill="#3D3935"/>
</g>
</svg>
